<svg xmlns="http://www.w3.org/2000/svg" width="816" height="1056" viewBox="0 0 816 1056">
    <rect x="0" y="0" width="816" height="1056" fill="#ffffff" />

    <style>
        .title { font-family: Arial, Helvetica, sans-serif; font-size: 24px; font-weight: 700; fill:
        #111; }
        .subtitle { font-family: Arial, Helvetica, sans-serif; font-size: 8px; fill: #333; }
        .section { font-family: Arial, Helvetica, sans-serif; font-size: 8px; font-weight: 700;
        fill: #111; }
        .hdr { font-family: Arial, Helvetica, sans-serif; font-size: 8px; font-weight: 700; fill:
        #111; }
        .rowtxt { font-family: Arial, Helvetica, sans-serif; font-size: 6px; fill: #111; }
        .sig { font-family: Arial, Helvetica, sans-serif; font-size: 7px; fill: #111; }
        .line { stroke: #222; stroke-width: 1; }
        .thin { stroke: #666; stroke-width: 0.6; }
        .box { fill: none; stroke: #222; stroke-width: 1; }
    </style>

    <!-- Page frame -->
    <rect x="24" y="24" width="768" height="1008" fill="none" stroke="#111" stroke-width="1.2" />

    <!-- Header -->
    <text x="35" y="50" text-anchor="left" class="title">Property Walkthrough</text>
    <text x="385" y="50" class="subtitle">Address: ____________________________________________
        Unit: __________
        Date: _______________</text>

    <!-- Column headers -->
    <line x1="36" y1="84" x2="780" y2="84" class="line" />
    <text x="42" y="96" class="hdr">Area / Item</text>
    <text x="502" y="96" text-anchor="middle" class="hdr">Move In Condition</text>
    <text x="678" y="96" text-anchor="middle" class="hdr">Move Out Condition</text>
    <line x1="36" y1="102" x2="780" y2="102" class="line" />

    <!-- Vertical column dividers -->
    <line x1="456" y1="84" x2="456" y2="980" class="thin" />
    <line x1="588" y1="84" x2="588" y2="980" class="thin" />

    <!-- Rows -->
    <!-- Layout notes:
       label column: x 42 to 450
       move in line: x 466 to 578
       move out line: x 598 to 770
       each row height: 11
  -->

    <!-- Outdoor Patio -->
    <text x="42" y="113" class="section">OUTDOOR PATIO</text>
    <line x1="36" y1="117" x2="780" y2="117" class="thin" />

    <rect x="42" y="121" width="6" height="6" class="box" />
    <text x="54" y="127" class="rowtxt">Surface condition (cracks, stains, uneven areas)</text>
    <line x1="466" y1="127" x2="578" y2="127" class="thin" />
    <line x1="598" y1="127" x2="770" y2="127" class="thin" />
    <rect x="42" y="132" width="6" height="6" class="box" />
    <text x="54" y="138" class="rowtxt">Railings or barriers (secure or loose)</text>
    <line x1="466" y1="138" x2="578" y2="138" class="thin" />
    <line x1="598" y1="138" x2="770" y2="138" class="thin" />
    <rect x="42" y="143" width="6" height="6" class="box" />
    <text x="54" y="149" class="rowtxt">Drainage (standing water or slope issues)</text>
    <line x1="466" y1="149" x2="578" y2="149" class="thin" />
    <line x1="598" y1="149" x2="770" y2="149" class="thin" />
    <rect x="42" y="154" width="6" height="6" class="box" />
    <text x="54" y="160" class="rowtxt">Cleanliness (debris, leaves, dirt)</text>
    <line x1="466" y1="160" x2="578" y2="160" class="thin" />
    <line x1="598" y1="160" x2="770" y2="160" class="thin" />
    <rect x="42" y="165" width="6" height="6" class="box" />
    <text x="54" y="171" class="rowtxt">Lighting (working or not)</text>
    <line x1="466" y1="171" x2="578" y2="171" class="thin" />
    <line x1="598" y1="171" x2="770" y2="171" class="thin" />

    <!-- Den -->
    <text x="42" y="184" class="section">DEN</text>
    <line x1="36" y1="188" x2="780" y2="188" class="thin" />

    <rect x="42" y="192" width="6" height="6" class="box" />
    <text x="54" y="198" class="rowtxt">Walls (marks, holes, paint condition)</text>
    <line x1="466" y1="198" x2="578" y2="198" class="thin" />
    <line x1="598" y1="198" x2="770" y2="198" class="thin" />
    <rect x="42" y="203" width="6" height="6" class="box" />
    <text x="54" y="209" class="rowtxt">Floors (scratches, stains, levelness)</text>
    <line x1="466" y1="209" x2="578" y2="209" class="thin" />
    <line x1="598" y1="209" x2="770" y2="209" class="thin" />
    <rect x="42" y="214" width="6" height="6" class="box" />
    <text x="54" y="220" class="rowtxt">Windows (open/close, locks, drafts)</text>
    <line x1="466" y1="220" x2="578" y2="220" class="thin" />
    <line x1="598" y1="220" x2="770" y2="220" class="thin" />
    <rect x="42" y="225" width="6" height="6" class="box" />
    <text x="54" y="231" class="rowtxt">Outlets and switches working</text>
    <line x1="466" y1="231" x2="578" y2="231" class="thin" />
    <line x1="598" y1="231" x2="770" y2="231" class="thin" />
    <rect x="42" y="236" width="6" height="6" class="box" />
    <text x="54" y="242" class="rowtxt">Ceiling (cracks, stains)</text>
    <line x1="466" y1="242" x2="578" y2="242" class="thin" />
    <line x1="598" y1="242" x2="770" y2="242" class="thin" />

    <!-- Kitchen -->
    <text x="42" y="255" class="section">KITCHEN</text>
    <line x1="36" y1="259" x2="780" y2="259" class="thin" />

    <rect x="42" y="263" width="6" height="6" class="box" />
    <text x="54" y="269" class="rowtxt">Cabinets (doors, hinges, interior condition)</text>
    <line x1="466" y1="269" x2="578" y2="269" class="thin" />
    <line x1="598" y1="269" x2="770" y2="269" class="thin" />
    <rect x="42" y="274" width="6" height="6" class="box" />
    <text x="54" y="280" class="rowtxt">Countertops (chips, stains, wear)</text>
    <line x1="466" y1="280" x2="578" y2="280" class="thin" />
    <line x1="598" y1="280" x2="770" y2="280" class="thin" />
    <rect x="42" y="285" width="6" height="6" class="box" />
    <text x="54" y="291" class="rowtxt">Sink (leaks, water pressure, drainage)</text>
    <line x1="466" y1="291" x2="578" y2="291" class="thin" />
    <line x1="598" y1="291" x2="770" y2="291" class="thin" />
    <rect x="42" y="296" width="6" height="6" class="box" />
    <text x="54" y="302" class="rowtxt">Appliances (test each one)</text>
    <line x1="466" y1="302" x2="578" y2="302" class="thin" />
    <line x1="598" y1="302" x2="770" y2="302" class="thin" />
    <rect x="42" y="307" width="6" height="6" class="box" />
    <text x="54" y="313" class="rowtxt">Floor condition</text>
    <line x1="466" y1="313" x2="578" y2="313" class="thin" />
    <line x1="598" y1="313" x2="770" y2="313" class="thin" />
    <rect x="42" y="318" width="6" height="6" class="box" />
    <text x="54" y="324" class="rowtxt">Signs of pests or residue</text>
    <line x1="466" y1="324" x2="578" y2="324" class="thin" />
    <line x1="598" y1="324" x2="770" y2="324" class="thin" />

    <!-- Walk-through Room -->
    <text x="42" y="337" class="section">WALK-THROUGH ROOM</text>
    <line x1="36" y1="341" x2="780" y2="341" class="thin" />

    <rect x="42" y="345" width="6" height="6" class="box" />
    <text x="54" y="351" class="rowtxt">Floor wear (heavy traffic areas)</text>
    <line x1="466" y1="351" x2="578" y2="351" class="thin" />
    <line x1="598" y1="351" x2="770" y2="351" class="thin" />
    <rect x="42" y="356" width="6" height="6" class="box" />
    <text x="54" y="362" class="rowtxt">Walls (scuffs, dents)</text>
    <line x1="466" y1="362" x2="578" y2="362" class="thin" />
    <line x1="598" y1="362" x2="770" y2="362" class="thin" />
    <rect x="42" y="367" width="6" height="6" class="box" />
    <text x="54" y="373" class="rowtxt">Lighting condition</text>
    <line x1="466" y1="373" x2="578" y2="373" class="thin" />
    <line x1="598" y1="373" x2="770" y2="373" class="thin" />
    <rect x="42" y="378" width="6" height="6" class="box" />
    <text x="54" y="384" class="rowtxt">Any obstructions or layout issues</text>
    <line x1="466" y1="384" x2="578" y2="384" class="thin" />
    <line x1="598" y1="384" x2="770" y2="384" class="thin" />

    <!-- Main Bathroom -->
    <text x="42" y="397" class="section">MAIN BATHROOM</text>
    <line x1="36" y1="401" x2="780" y2="401" class="thin" />

    <rect x="42" y="405" width="6" height="6" class="box" />
    <text x="54" y="411" class="rowtxt">Toilet (flush, stability)</text>
    <line x1="466" y1="411" x2="578" y2="411" class="thin" />
    <line x1="598" y1="411" x2="770" y2="411" class="thin" />
    <rect x="42" y="416" width="6" height="6" class="box" />
    <text x="54" y="422" class="rowtxt">Sink (pressure, drainage, leaks)</text>
    <line x1="466" y1="422" x2="578" y2="422" class="thin" />
    <line x1="598" y1="422" x2="770" y2="422" class="thin" />
    <rect x="42" y="427" width="6" height="6" class="box" />
    <text x="54" y="433" class="rowtxt">Shower/tub (grout, caulking, water flow)</text>
    <line x1="466" y1="433" x2="578" y2="433" class="thin" />
    <line x1="598" y1="433" x2="770" y2="433" class="thin" />
    <rect x="42" y="438" width="6" height="6" class="box" />
    <text x="54" y="444" class="rowtxt">Ventilation (fan working or not)</text>
    <line x1="466" y1="444" x2="578" y2="444" class="thin" />
    <line x1="598" y1="444" x2="770" y2="444" class="thin" />
    <rect x="42" y="449" width="6" height="6" class="box" />
    <text x="54" y="455" class="rowtxt">Tiles (cracked, loose)</text>
    <line x1="466" y1="455" x2="578" y2="455" class="thin" />
    <line x1="598" y1="455" x2="770" y2="455" class="thin" />

    <!-- Master Hallway -->
    <text x="42" y="468" class="section">MASTER HALLWAY</text>
    <line x1="36" y1="472" x2="780" y2="472" class="thin" />

    <rect x="42" y="476" width="6" height="6" class="box" />
    <text x="54" y="482" class="rowtxt">Floor condition (wear patterns)</text>
    <line x1="466" y1="482" x2="578" y2="482" class="thin" />
    <line x1="598" y1="482" x2="770" y2="482" class="thin" />
    <rect x="42" y="487" width="6" height="6" class="box" />
    <text x="54" y="493" class="rowtxt">Walls (marks, damage)</text>
    <line x1="466" y1="493" x2="578" y2="493" class="thin" />
    <line x1="598" y1="493" x2="770" y2="493" class="thin" />
    <rect x="42" y="498" width="6" height="6" class="box" />
    <text x="54" y="504" class="rowtxt">Lighting</text>
    <line x1="466" y1="504" x2="578" y2="504" class="thin" />
    <line x1="598" y1="504" x2="770" y2="504" class="thin" />
    <rect x="42" y="509" width="6" height="6" class="box" />
    <text x="54" y="515" class="rowtxt">Doors along hallway (alignment, sticking)</text>
    <line x1="466" y1="515" x2="578" y2="515" class="thin" />
    <line x1="598" y1="515" x2="770" y2="515" class="thin" />

    <!-- Master Bedroom -->
    <text x="42" y="528" class="section">MASTER BEDROOM</text>
    <line x1="36" y1="532" x2="780" y2="532" class="thin" />

    <rect x="42" y="536" width="6" height="6" class="box" />
    <text x="54" y="542" class="rowtxt">Walls and paint condition</text>
    <line x1="466" y1="542" x2="578" y2="542" class="thin" />
    <line x1="598" y1="542" x2="770" y2="542" class="thin" />
    <rect x="42" y="547" width="6" height="6" class="box" />
    <text x="54" y="553" class="rowtxt">Floors (noise, uneven areas)</text>
    <line x1="466" y1="553" x2="578" y2="553" class="thin" />
    <line x1="598" y1="553" x2="770" y2="553" class="thin" />
    <rect x="42" y="558" width="6" height="6" class="box" />
    <text x="54" y="564" class="rowtxt">Windows (drafts, locks, operation)</text>
    <line x1="466" y1="564" x2="578" y2="564" class="thin" />
    <line x1="598" y1="564" x2="770" y2="564" class="thin" />
    <rect x="42" y="569" width="6" height="6" class="box" />
    <text x="54" y="575" class="rowtxt">Closet doors (if present)</text>
    <line x1="466" y1="575" x2="578" y2="575" class="thin" />
    <line x1="598" y1="575" x2="770" y2="575" class="thin" />
    <rect x="42" y="580" width="6" height="6" class="box" />
    <text x="54" y="586" class="rowtxt">Outlets and switches</text>
    <line x1="466" y1="586" x2="578" y2="586" class="thin" />
    <line x1="598" y1="586" x2="770" y2="586" class="thin" />

    <!-- Master Bathroom -->
    <text x="42" y="599" class="section">MASTER BATHROOM</text>
    <line x1="36" y1="603" x2="780" y2="603" class="thin" />

    <rect x="42" y="607" width="6" height="6" class="box" />
    <text x="54" y="613" class="rowtxt">Sink, faucet, drainage</text>
    <line x1="466" y1="613" x2="578" y2="613" class="thin" />
    <line x1="598" y1="613" x2="770" y2="613" class="thin" />
    <rect x="42" y="618" width="6" height="6" class="box" />
    <text x="54" y="624" class="rowtxt">Shower/tub condition</text>
    <line x1="466" y1="624" x2="578" y2="624" class="thin" />
    <line x1="598" y1="624" x2="770" y2="624" class="thin" />
    <rect x="42" y="629" width="6" height="6" class="box" />
    <text x="54" y="635" class="rowtxt">Water pressure and temperature</text>
    <line x1="466" y1="635" x2="578" y2="635" class="thin" />
    <line x1="598" y1="635" x2="770" y2="635" class="thin" />
    <rect x="42" y="640" width="6" height="6" class="box" />
    <text x="54" y="646" class="rowtxt">Toilet function</text>
    <line x1="466" y1="646" x2="578" y2="646" class="thin" />
    <line x1="598" y1="646" x2="770" y2="646" class="thin" />
    <rect x="42" y="651" width="6" height="6" class="box" />
    <text x="54" y="657" class="rowtxt">Mold or moisture signs</text>
    <line x1="466" y1="657" x2="578" y2="657" class="thin" />
    <line x1="598" y1="657" x2="770" y2="657" class="thin" />

    <!-- Master Walk-In Closet -->
    <text x="42" y="670" class="section">MASTER WALK-IN CLOSET</text>
    <line x1="36" y1="674" x2="780" y2="674" class="thin" />

    <rect x="42" y="678" width="6" height="6" class="box" />
    <text x="54" y="684" class="rowtxt">Shelving (secure or loose)</text>
    <line x1="466" y1="684" x2="578" y2="684" class="thin" />
    <line x1="598" y1="684" x2="770" y2="684" class="thin" />
    <rect x="42" y="689" width="6" height="6" class="box" />
    <text x="54" y="695" class="rowtxt">Floor condition</text>
    <line x1="466" y1="695" x2="578" y2="695" class="thin" />
    <line x1="598" y1="695" x2="770" y2="695" class="thin" />
    <rect x="42" y="700" width="6" height="6" class="box" />
    <text x="54" y="706" class="rowtxt">Lighting</text>
    <line x1="466" y1="706" x2="578" y2="706" class="thin" />
    <line x1="598" y1="706" x2="770" y2="706" class="thin" />
    <rect x="42" y="711" width="6" height="6" class="box" />
    <text x="54" y="717" class="rowtxt">Odors or moisture</text>
    <line x1="466" y1="717" x2="578" y2="717" class="thin" />
    <line x1="598" y1="717" x2="770" y2="717" class="thin" />

    <!-- Back Deck -->
    <text x="42" y="730" class="section">BACK DECK</text>
    <line x1="36" y1="734" x2="780" y2="734" class="thin" />

    <rect x="42" y="738" width="6" height="6" class="box" />
    <text x="54" y="744" class="rowtxt">Wood or surface condition (soft spots, wear)</text>
    <line x1="466" y1="744" x2="578" y2="744" class="thin" />
    <line x1="598" y1="744" x2="770" y2="744" class="thin" />
    <rect x="42" y="749" width="6" height="6" class="box" />
    <text x="54" y="755" class="rowtxt">Railings (secure)</text>
    <line x1="466" y1="755" x2="578" y2="755" class="thin" />
    <line x1="598" y1="755" x2="770" y2="755" class="thin" />
    <rect x="42" y="760" width="6" height="6" class="box" />
    <text x="54" y="766" class="rowtxt">Stairs (stable, even)</text>
    <line x1="466" y1="766" x2="578" y2="766" class="thin" />
    <line x1="598" y1="766" x2="770" y2="766" class="thin" />
    <rect x="42" y="771" width="6" height="6" class="box" />
    <text x="54" y="777" class="rowtxt">Drainage and debris</text>
    <line x1="466" y1="777" x2="578" y2="777" class="thin" />
    <line x1="598" y1="777" x2="770" y2="777" class="thin" />
    <rect x="42" y="782" width="6" height="6" class="box" />
    <text x="54" y="788" class="rowtxt">Safety concerns</text>
    <line x1="466" y1="788" x2="578" y2="788" class="thin" />
    <line x1="598" y1="788" x2="770" y2="788" class="thin" />

    <!-- Footer notes -->
    <line x1="36" y1="804" x2="780" y2="804" class="line" />
    <text x="42" y="830" class="subtitle">Notes:
        ___________________________________________________________________________________</text>
    <text x="42" y="845" class="subtitle">
        _________________________________________________________________________________________</text>
    <text x="42" y="860" class="subtitle">
        _________________________________________________________________________________________</text>
    <text x="42" y="875" class="subtitle">
        _________________________________________________________________________________________</text>
    <text x="42" y="890" class="subtitle">
        _________________________________________________________________________________________</text>
    <text x="42" y="905" class="subtitle">
        _________________________________________________________________________________________</text>
    <text x="42" y="920" class="subtitle">
        _________________________________________________________________________________________</text>
    <text x="42" y="935" class="subtitle">
        _________________________________________________________________________________________</text>
    <text x="42" y="950" class="subtitle">
        _________________________________________________________________________________________</text>
    <text x="42" y="965" class="subtitle">
        _________________________________________________________________________________________</text>
    <text x="42" y="980" class="subtitle">
        _________________________________________________________________________________________</text>
    <text x="42" y="995" class="subtitle">
        _________________________________________________________________________________________</text>

    <!-- <line x1="40" x2="440" y1="965" y2="965" class="line" /> -->

    <!-- Signature areas -->
    <text x="466" y="848" text-anchor="left" class="hdr">ACKNOWLEDGEMENT</text>
    <text x="598" y="848" text-anchor="left" class="hdr">ACKNOWLEDGEMENT</text>

    <!-- Move In signatures -->
    <text x="466" y="878" class="sig">Property Manager</text>
    <line x1="466" y1="870" x2="578" y2="870" class="line" />

    <text x="466" y="908" class="sig">Tenant 1</text>
    <line x1="466" y1="900" x2="578" y2="900" class="line" />

    <text x="466" y="938" class="sig">Tenant 2</text>
    <line x1="466" y1="930" x2="578" y2="930" class="line" />

    <!-- Move Out signatures -->
    <text x="598" y="878" class="sig">Property Manager</text>
    <line x1="598" y1="870" x2="770" y2="870" class="line" />

    <text x="598" y="908" class="sig">Tenant 1</text>
    <line x1="598" y1="900" x2="770" y2="900" class="line" />

    <text x="598" y="938" class="sig">Tenant 2</text>
    <line x1="598" y1="930" x2="770" y2="930" class="line" />

    <!-- Dates -->
    <text x="466" y="968" class="sig">Date</text>
    <line x1="466" y1="960" x2="578" y2="960" class="line" />

    <text x="598" y="968" class="sig">Date</text>
    <line x1="598" y1="960" x2="770" y2="960" class="line" />

    <!-- Condition legend -->
    <rect x="456" y="986" width="324" height="36" class="box" />
    <text x="466" y="996" class="rowtxt">FIX = Needs fixing</text>
    <text x="466" y="1004" class="rowtxt">REP = Repair required</text>
    <text x="466" y="1012" class="rowtxt">REPL = Replace</text>

    <text x="618" y="996" class="rowtxt">MON = Monitor</text>
    <text x="618" y="1004" class="rowtxt">HOLD = On hold</text>
    <text x="618" y="1012" class="rowtxt">OK / GOOD = Acceptable</text>
</svg>
